<svg id="icons_eandro" data-name="icons eandro" xmlns="http://www.w3.org/2000/svg" viewBox="0 0 1024 226.94">
  <defs>
    <style>
      * { fill: #FFFFFF; }
      .pick { fill: #FFCD00; }
      .finger { fill: #000000; }
    </style>
  </defs>
  <polygon points="299.36 130.9 299.36 173.86 275.57 173.86 275.57 130.9 243.32 71.89 270.96 71.89 290.59 110.68 309.91 71.89 331.32 71.89 299.36 130.9"/>
  <path
  d="M339.19,139.82l-.15,3.72c-.3,8.92,5.06,16.2,14.56,16.2,6.69,0,13.38-4.9,13.38-11.9l20.21,1.5c0,3.72-8.77,26-34.33,26-22.59,0-37.31-15.75-37.31-38.2s13.22-40.29,36.71-40.29c10.55,0,21.41,4.76,27.64,13.38s7.89,19.33,7.73,29.58Zm14-28.69c-9.66,0-13.38,7.13-14.12,15.76H365.8c-.45-8.18-3.13-15.76-12.64-15.76"/>
  <rect x="397.88" y="71.88" width="21.84" height="101.97"/>
  <rect x="432.06" y="71.88" width="21.85" height="101.97"/>
  <path
  d="M498.5,175.35c-23.19,0-35.83-17.54-35.83-39.38,0-22,12.79-39.11,35.83-39.11,23.64,0,36.42,17.54,36.42,39.84,0,21.56-14.11,38.66-36.42,38.66m10.55-57.23c-1.78-4.91-5.35-6.84-10.4-6.84-11.75,0-12.49,13.84-12.49,22.45s-.15,27.05,12.33,27.05c12.33,0,12.94-14.86,12.94-23.93,0-5.95-.29-13.08-2.38-18.73"/>
  <polygon points="619.21 173.86 599.58 173.86 587.84 125.4 587.53 125.4 575.8 173.86 557.07 173.86 533.73 98.34 557.07 98.34 569.11 144.57 569.41 144.57 580.85 98.34 600.92 98.34 611.77 144.73 612.06 144.73 624.7 98.34 641.95 98.34 619.21 173.86"/>
  <path
  d="M788.64,173.52c-1.18-4.75-1.28-9.9-1.28-14.78V129.45c0-7.75,0-17.4-6-24.08-5.67-6.24-14.93-7.05-22.34-7.05-6.64,0-28.15,1.36-31.28,18.61l8.7,1.42c2.22-8.65,9.65-13.23,21.54-13.23,14.23,0,20.3,5.82,20.3,19.42v4.4H767.38c-8.83,0-20.05.5-28.53,4.37-8.08,3.75-13.31,11.58-13.31,19.93,0,15,12.65,21.77,25.19,21.77,12.15,0,20.48-4.9,25.45-15l1.75-3.57.38,4,1.24,13.11Zm-10.33-32c0,7.65-9.38,26.69-25.06,26.69-8.06,0-17.48-3.77-17.48-14.36,0-18.37,23.89-18.37,31.75-18.37h10.79Z"/>
  <path
  d="M855.42,165.89c-5.11-1.91-13.08-2.25-19.48-2.51l-2.31-.1c-1.55-.08-3.25-.11-5-.15-4.32-.09-9.22-.18-13-1.06-4.14-.94-6.53-3.67-6.53-7.5,0-4.48,5-8.11,9.16-8.11a31.73,31.73,0,0,1,4.84.57,34.37,34.37,0,0,0,5.42.63c7.29,0,13.69-1.93,18.5-5.57a23.38,23.38,0,0,0,9.21-18,26.86,26.86,0,0,0-7-17.82l-.37-.4.08-.53c1.32-8.84,7.61-9.58,14.48-9.58h0l-.11-7.17-1.92-.1c-.65,0-1.28,0-1.89,0-9,0-12.71,3.19-14.34,12.2l-.26,1.44-1.33-.62a35.1,35.1,0,0,0-14.83-3.16c-13.84,0-27.86,8.44-27.86,24.58a23.3,23.3,0,0,0,9.38,19l1.45,1.13-1.66.78c-6.18,2.86-9.76,5.82-9.76,12.5,0,4.57,2,7.84,6.78,10.95l1.9,1.26-2.14.76c-7.09,2.5-10.69,7.31-10.69,14.25,0,8.77,6.65,13.33,12.23,15.61,6.22,2.55,14.47,2.89,21.72,2.89,24,0,36.18-6.93,36.18-20.58a16.64,16.64,0,0,0-10.87-15.59m-44.72-42.83c0-10.3,7.6-17.78,18.08-17.78a17.59,17.59,0,0,1,17.92,17.62c0,10.73-7.2,17.93-17.92,17.93-11,0-18.08-7-18.08-17.78m39.52,68.8c-5,2.35-13.6,3.39-19.95,3.39-12,0-24.92-3.5-24.92-13.32,0-6.35,4.72-9.36,8.83-11.28l.29-.15.33,0c5.44.69,13.17.86,18.81,1,2.84.07,5.22.12,6.7.22,5.54.31,17.1,1,17.1,10.19,0,5.81-3.64,8.29-7.19,9.93"/><path
  d="M921.25,153c-3.71,9.17-11.29,14.41-20.92,14.41-8.55,0-16.73-4.86-20.34-12.07-3-6-3.25-11.76-3.25-17.6v-1.13h54.88c.13-12.2-3.54-23-10.12-29.78-5.51-5.68-12.84-8.55-21.77-8.55-23.23,0-33.8,20-33.8,38.56,0,19,10.35,38.12,33.5,38.12,14,0,26.13-8.05,30.63-20.16ZM876.9,129.11c.43-11.69,8.87-24.12,22.82-24.12a20.15,20.15,0,0,1,14.75,5.8c4.34,4.4,6.93,10.91,6.84,18.38v1.11H876.86Z"/>
  <path
  d="M991.28,136.63c-4.35-3-9.82-4-15.11-5l-11.21-2c-5.76-1-14.47-2.56-14.47-12.1,0-8.37,8.64-12.14,17.19-12.14,9.69,0,16.93,4.25,20,11.72l8.59-1.79c-4.65-14.79-19.75-17-28.46-17-12.52,0-27.13,5.5-27.13,21,0,10.65,7.14,17.33,21.22,19.86l12.34,2.22c4.68.84,15.64,2.85,15.64,12.56,0,10-10,13.62-19.41,13.62-9.94,0-21.33-4.37-23.63-13.93l-9,1.77c3.66,12.28,15.42,19.56,31.75,19.56,13.94,0,30.23-5.82,30.23-22.21a19,19,0,0,0-8.56-16.16"/>
  <path
  d="M713.45,80.36c-7-5.78-15.94-6.57-23.8-6.57H656.59v99.72h10.52V132h24c10.76,0,18.08-2.46,23.74-8a29.42,29.42,0,0,0,8.57-20.75c0-8.79-3.92-17.79-10-22.92m-6.65,37.84c-5.27,5.11-11.28,5.54-17,5.54H667.11V82.24h23.58c4.94,0,9.75.31,14.53,4.12s7.56,10,7.56,16.93a21.13,21.13,0,0,1-6,14.92"/>
  <path class="pick" d="M168.44,222.09c-49,23-137.28-40.76-160.31-89.73S13.4,34.79,62.36,11.76A119.39,119.39,0,0,1,112.84,0c32.62,0,62.42,15.39,77.68,47.83C213.55,96.79,217.41,199.06,168.44,222.09Z"/>
  <path class="finger" d="M57.39,50.78H88.84c10.51,0,28.23,1.8,37.81,21.19l46.84,98.47a12,12,0,0,1-18.32-1.57l-40.35-57.16a18,18,0,0,0-27-2.77L76.32,119.67a12.47,12.47,0,0,1-17.35-.3l-1.24-1.24L68.33,103.9a30,30,0,0,0,1.23-34.06Zm18.2,103a16.7,16.7,0,0,0-1.95,9.19c.41,6.41,8.46,12,8.46,12l29.55-49.88a8.2,8.2,0,0,0-.2-8c-6.31-9.93-15.05-6.8-15.05-6.8Z"/>
  <path d="M1005.63,98.32h-2v-11h-3.77V85.79h9.57v1.58h-3.79Zm18.37,0h-1.93v-10l-4,10h-1.39l-4-10v10h-1.76V85.79h2.76l3.86,9.51,3.77-9.51H1024Z"/>
</svg>
